<mxfile host="app.diagrams.net" modified="2022-08-01T22:02:09.097Z" agent="5.0 (Macintosh; Intel Mac OS X 10_15_7) AppleWebKit/605.1.15 (KHTML, like Gecko) Version/15.6 Safari/605.1.15" etag="yVgvSwbfFrs-jinsJhTf" version="20.2.2" type="github">
  <diagram id="C5RBs43oDa-KdzZeNtuy" name="Page-1">
    <mxGraphModel dx="1482" dy="433" grid="1" gridSize="10" guides="1" tooltips="1" connect="1" arrows="1" fold="1" page="1" pageScale="1" pageWidth="827" pageHeight="1169" math="0" shadow="0">
      <root>
        <mxCell id="WIyWlLk6GJQsqaUBKTNV-0" />
        <mxCell id="WIyWlLk6GJQsqaUBKTNV-1" parent="WIyWlLk6GJQsqaUBKTNV-0" />
        <mxCell id="WIyWlLk6GJQsqaUBKTNV-2" value="" style="rounded=0;html=1;jettySize=auto;orthogonalLoop=1;fontSize=11;endArrow=block;endFill=0;endSize=8;strokeWidth=1;shadow=0;labelBackgroundColor=none;edgeStyle=orthogonalEdgeStyle;" parent="WIyWlLk6GJQsqaUBKTNV-1" source="WIyWlLk6GJQsqaUBKTNV-3" target="WIyWlLk6GJQsqaUBKTNV-6" edge="1">
          <mxGeometry relative="1" as="geometry" />
        </mxCell>
        <mxCell id="WIyWlLk6GJQsqaUBKTNV-3" value="Malloc" style="rounded=1;whiteSpace=wrap;html=1;fontSize=12;glass=0;strokeWidth=1;shadow=0;" parent="WIyWlLk6GJQsqaUBKTNV-1" vertex="1">
          <mxGeometry x="160" y="80" width="120" height="40" as="geometry" />
        </mxCell>
        <mxCell id="WIyWlLk6GJQsqaUBKTNV-4" value="No" style="rounded=0;html=1;jettySize=auto;orthogonalLoop=1;fontSize=11;endArrow=block;endFill=0;endSize=8;strokeWidth=1;shadow=0;labelBackgroundColor=none;edgeStyle=orthogonalEdgeStyle;" parent="WIyWlLk6GJQsqaUBKTNV-1" source="WIyWlLk6GJQsqaUBKTNV-6" target="WIyWlLk6GJQsqaUBKTNV-10" edge="1">
          <mxGeometry y="20" relative="1" as="geometry">
            <mxPoint as="offset" />
          </mxGeometry>
        </mxCell>
        <mxCell id="WIyWlLk6GJQsqaUBKTNV-5" value="Yes" style="edgeStyle=orthogonalEdgeStyle;rounded=0;html=1;jettySize=auto;orthogonalLoop=1;fontSize=11;endArrow=block;endFill=0;endSize=8;strokeWidth=1;shadow=0;labelBackgroundColor=none;" parent="WIyWlLk6GJQsqaUBKTNV-1" source="WIyWlLk6GJQsqaUBKTNV-6" target="WIyWlLk6GJQsqaUBKTNV-7" edge="1">
          <mxGeometry y="10" relative="1" as="geometry">
            <mxPoint as="offset" />
          </mxGeometry>
        </mxCell>
        <mxCell id="WIyWlLk6GJQsqaUBKTNV-6" value="search in tcache" style="rhombus;whiteSpace=wrap;html=1;shadow=0;fontFamily=Helvetica;fontSize=12;align=center;strokeWidth=1;spacing=6;spacingTop=-4;" parent="WIyWlLk6GJQsqaUBKTNV-1" vertex="1">
          <mxGeometry x="170" y="170" width="100" height="80" as="geometry" />
        </mxCell>
        <mxCell id="WIyWlLk6GJQsqaUBKTNV-7" value="return address" style="rounded=1;whiteSpace=wrap;html=1;fontSize=12;glass=0;strokeWidth=1;shadow=0;" parent="WIyWlLk6GJQsqaUBKTNV-1" vertex="1">
          <mxGeometry x="320" y="190" width="120" height="40" as="geometry" />
        </mxCell>
        <mxCell id="WIyWlLk6GJQsqaUBKTNV-8" value="No" style="rounded=0;html=1;jettySize=auto;orthogonalLoop=1;fontSize=11;endArrow=block;endFill=0;endSize=8;strokeWidth=1;shadow=0;labelBackgroundColor=none;edgeStyle=orthogonalEdgeStyle;" parent="WIyWlLk6GJQsqaUBKTNV-1" source="WIyWlLk6GJQsqaUBKTNV-10" edge="1">
          <mxGeometry x="0.3333" y="20" relative="1" as="geometry">
            <mxPoint as="offset" />
            <mxPoint x="220" y="490" as="targetPoint" />
          </mxGeometry>
        </mxCell>
        <mxCell id="WIyWlLk6GJQsqaUBKTNV-9" value="Yes" style="edgeStyle=orthogonalEdgeStyle;rounded=0;html=1;jettySize=auto;orthogonalLoop=1;fontSize=11;endArrow=block;endFill=0;endSize=8;strokeWidth=1;shadow=0;labelBackgroundColor=none;exitX=0;exitY=0.5;exitDx=0;exitDy=0;" parent="WIyWlLk6GJQsqaUBKTNV-1" source="WIyWlLk6GJQsqaUBKTNV-10" edge="1">
          <mxGeometry x="-0.2" y="-15" relative="1" as="geometry">
            <mxPoint as="offset" />
            <mxPoint x="100" y="345" as="targetPoint" />
            <Array as="points">
              <mxPoint x="110" y="345" />
              <mxPoint x="110" y="345" />
            </Array>
          </mxGeometry>
        </mxCell>
        <mxCell id="WIyWlLk6GJQsqaUBKTNV-10" value="Is this malloc request large enough?" style="rhombus;whiteSpace=wrap;html=1;shadow=0;fontFamily=Helvetica;fontSize=12;align=center;strokeWidth=1;spacing=6;spacingTop=-4;" parent="WIyWlLk6GJQsqaUBKTNV-1" vertex="1">
          <mxGeometry x="150" y="290" width="140" height="110" as="geometry" />
        </mxCell>
        <mxCell id="LZnhyjSrcPgde9gPbSWK-0" value="search in &amp;nbsp;fastbin" style="rhombus;whiteSpace=wrap;html=1;shadow=0;fontFamily=Helvetica;fontSize=12;align=center;strokeWidth=1;spacing=6;spacingTop=-4;" parent="WIyWlLk6GJQsqaUBKTNV-1" vertex="1">
          <mxGeometry x="150" y="490" width="140" height="80" as="geometry" />
        </mxCell>
        <mxCell id="LZnhyjSrcPgde9gPbSWK-1" value="" style="endArrow=none;html=1;rounded=0;" parent="WIyWlLk6GJQsqaUBKTNV-1" edge="1">
          <mxGeometry width="50" height="50" relative="1" as="geometry">
            <mxPoint x="290" y="529.58" as="sourcePoint" />
            <mxPoint x="350" y="530" as="targetPoint" />
          </mxGeometry>
        </mxCell>
        <mxCell id="LZnhyjSrcPgde9gPbSWK-2" value="" style="endArrow=none;html=1;rounded=0;" parent="WIyWlLk6GJQsqaUBKTNV-1" edge="1">
          <mxGeometry width="50" height="50" relative="1" as="geometry">
            <mxPoint x="350" y="530" as="sourcePoint" />
            <mxPoint x="350" y="330" as="targetPoint" />
          </mxGeometry>
        </mxCell>
        <mxCell id="LZnhyjSrcPgde9gPbSWK-3" value="Yes" style="text;html=1;strokeColor=none;fillColor=none;align=center;verticalAlign=middle;whiteSpace=wrap;rounded=0;" parent="WIyWlLk6GJQsqaUBKTNV-1" vertex="1">
          <mxGeometry x="290" y="500" width="60" height="30" as="geometry" />
        </mxCell>
        <mxCell id="LZnhyjSrcPgde9gPbSWK-4" value="No" style="rounded=0;html=1;jettySize=auto;orthogonalLoop=1;fontSize=11;endArrow=block;endFill=0;endSize=8;strokeWidth=1;shadow=0;labelBackgroundColor=none;edgeStyle=orthogonalEdgeStyle;" parent="WIyWlLk6GJQsqaUBKTNV-1" edge="1">
          <mxGeometry x="-0.1111" y="20" relative="1" as="geometry">
            <mxPoint as="offset" />
            <mxPoint x="219.65999999999988" y="569.9999999999999" as="sourcePoint" />
            <mxPoint x="219.65999999999988" y="660" as="targetPoint" />
          </mxGeometry>
        </mxCell>
        <mxCell id="LZnhyjSrcPgde9gPbSWK-5" value="search in small bin" style="rhombus;whiteSpace=wrap;html=1;" parent="WIyWlLk6GJQsqaUBKTNV-1" vertex="1">
          <mxGeometry x="150" y="660" width="140" height="80" as="geometry" />
        </mxCell>
        <mxCell id="LZnhyjSrcPgde9gPbSWK-6" value="" style="endArrow=none;html=1;rounded=0;exitX=1;exitY=0.5;exitDx=0;exitDy=0;" parent="WIyWlLk6GJQsqaUBKTNV-1" source="LZnhyjSrcPgde9gPbSWK-5" edge="1">
          <mxGeometry width="50" height="50" relative="1" as="geometry">
            <mxPoint x="310" y="640" as="sourcePoint" />
            <mxPoint x="350" y="700" as="targetPoint" />
          </mxGeometry>
        </mxCell>
        <mxCell id="LZnhyjSrcPgde9gPbSWK-7" value="" style="endArrow=none;html=1;rounded=0;entryX=1;entryY=1;entryDx=0;entryDy=0;" parent="WIyWlLk6GJQsqaUBKTNV-1" target="LZnhyjSrcPgde9gPbSWK-3" edge="1">
          <mxGeometry width="50" height="50" relative="1" as="geometry">
            <mxPoint x="350" y="700" as="sourcePoint" />
            <mxPoint x="360" y="590" as="targetPoint" />
          </mxGeometry>
        </mxCell>
        <mxCell id="LZnhyjSrcPgde9gPbSWK-8" value="Yes" style="text;html=1;strokeColor=none;fillColor=none;align=center;verticalAlign=middle;whiteSpace=wrap;rounded=0;" parent="WIyWlLk6GJQsqaUBKTNV-1" vertex="1">
          <mxGeometry x="290" y="670" width="60" height="30" as="geometry" />
        </mxCell>
        <mxCell id="LZnhyjSrcPgde9gPbSWK-9" value="use mmap" style="rounded=1;whiteSpace=wrap;html=1;fontSize=12;glass=0;strokeWidth=1;shadow=0;" parent="WIyWlLk6GJQsqaUBKTNV-1" vertex="1">
          <mxGeometry x="-20" y="325" width="120" height="40" as="geometry" />
        </mxCell>
        <mxCell id="LZnhyjSrcPgde9gPbSWK-10" value="" style="rounded=0;html=1;jettySize=auto;orthogonalLoop=1;fontSize=11;endArrow=block;endFill=0;endSize=8;strokeWidth=1;shadow=0;labelBackgroundColor=none;edgeStyle=orthogonalEdgeStyle;entryX=0.25;entryY=1;entryDx=0;entryDy=0;" parent="WIyWlLk6GJQsqaUBKTNV-1" target="WIyWlLk6GJQsqaUBKTNV-7" edge="1">
          <mxGeometry x="-1" y="30" relative="1" as="geometry">
            <mxPoint as="offset" />
            <mxPoint x="350" y="330" as="sourcePoint" />
            <mxPoint x="349.3099999999998" y="300" as="targetPoint" />
          </mxGeometry>
        </mxCell>
        <mxCell id="LZnhyjSrcPgde9gPbSWK-12" value="No" style="rounded=0;html=1;jettySize=auto;orthogonalLoop=1;fontSize=11;endArrow=block;endFill=0;endSize=8;strokeWidth=1;shadow=0;labelBackgroundColor=none;edgeStyle=orthogonalEdgeStyle;" parent="WIyWlLk6GJQsqaUBKTNV-1" edge="1">
          <mxGeometry x="-0.1111" y="20" relative="1" as="geometry">
            <mxPoint as="offset" />
            <mxPoint x="219.65999999999985" y="739.9999999999999" as="sourcePoint" />
            <mxPoint x="220" y="790" as="targetPoint" />
            <Array as="points">
              <mxPoint x="220" y="760" />
              <mxPoint x="220" y="760" />
            </Array>
          </mxGeometry>
        </mxCell>
        <mxCell id="LZnhyjSrcPgde9gPbSWK-14" value="Clear entries in fast-bins, move chunks to the unsorted-bin" style="rhombus;whiteSpace=wrap;html=1;" parent="WIyWlLk6GJQsqaUBKTNV-1" vertex="1">
          <mxGeometry x="117.5" y="790" width="205" height="110" as="geometry" />
        </mxCell>
        <mxCell id="LZnhyjSrcPgde9gPbSWK-16" value="" style="endArrow=none;html=1;rounded=0;entryX=1;entryY=1;entryDx=0;entryDy=0;" parent="WIyWlLk6GJQsqaUBKTNV-1" target="LZnhyjSrcPgde9gPbSWK-8" edge="1">
          <mxGeometry width="50" height="50" relative="1" as="geometry">
            <mxPoint x="350" y="970" as="sourcePoint" />
            <mxPoint x="230" y="750" as="targetPoint" />
          </mxGeometry>
        </mxCell>
        <mxCell id="LZnhyjSrcPgde9gPbSWK-19" value="" style="rounded=0;html=1;jettySize=auto;orthogonalLoop=1;fontSize=11;endArrow=block;endFill=0;endSize=8;strokeWidth=1;shadow=0;labelBackgroundColor=none;edgeStyle=orthogonalEdgeStyle;" parent="WIyWlLk6GJQsqaUBKTNV-1" edge="1">
          <mxGeometry x="-0.1111" y="20" relative="1" as="geometry">
            <mxPoint as="offset" />
            <mxPoint x="219.65999999999985" y="900" as="sourcePoint" />
            <mxPoint x="220" y="930" as="targetPoint" />
            <Array as="points">
              <mxPoint x="220" y="920" />
              <mxPoint x="220" y="920" />
            </Array>
          </mxGeometry>
        </mxCell>
        <mxCell id="LZnhyjSrcPgde9gPbSWK-20" value="search in unsorted bin" style="rhombus;whiteSpace=wrap;html=1;" parent="WIyWlLk6GJQsqaUBKTNV-1" vertex="1">
          <mxGeometry x="170" y="930" width="100" height="80" as="geometry" />
        </mxCell>
        <mxCell id="LZnhyjSrcPgde9gPbSWK-21" value="" style="endArrow=none;html=1;rounded=0;exitX=1;exitY=0.5;exitDx=0;exitDy=0;" parent="WIyWlLk6GJQsqaUBKTNV-1" source="LZnhyjSrcPgde9gPbSWK-20" edge="1">
          <mxGeometry width="50" height="50" relative="1" as="geometry">
            <mxPoint x="180" y="880" as="sourcePoint" />
            <mxPoint x="350" y="970" as="targetPoint" />
          </mxGeometry>
        </mxCell>
        <mxCell id="S1Z8hwwc7efvkq5VSSDY-0" value="Yes" style="text;html=1;strokeColor=none;fillColor=none;align=center;verticalAlign=middle;whiteSpace=wrap;rounded=0;" vertex="1" parent="WIyWlLk6GJQsqaUBKTNV-1">
          <mxGeometry x="290" y="940" width="60" height="30" as="geometry" />
        </mxCell>
        <mxCell id="S1Z8hwwc7efvkq5VSSDY-2" value="" style="rounded=0;html=1;jettySize=auto;orthogonalLoop=1;fontSize=11;endArrow=block;endFill=0;endSize=8;strokeWidth=1;shadow=0;labelBackgroundColor=none;edgeStyle=orthogonalEdgeStyle;" edge="1" parent="WIyWlLk6GJQsqaUBKTNV-1">
          <mxGeometry x="-0.1111" y="20" relative="1" as="geometry">
            <mxPoint as="offset" />
            <mxPoint x="219.49999999999986" y="1010" as="sourcePoint" />
            <mxPoint x="220" y="1050" as="targetPoint" />
            <Array as="points">
              <mxPoint x="219.84" y="1030" />
              <mxPoint x="219.84" y="1030" />
            </Array>
          </mxGeometry>
        </mxCell>
        <mxCell id="S1Z8hwwc7efvkq5VSSDY-4" value="No" style="text;html=1;align=center;verticalAlign=middle;resizable=0;points=[];autosize=1;strokeColor=none;fillColor=none;" vertex="1" parent="WIyWlLk6GJQsqaUBKTNV-1">
          <mxGeometry x="220" y="1010" width="40" height="30" as="geometry" />
        </mxCell>
        <mxCell id="S1Z8hwwc7efvkq5VSSDY-5" value="Put chunks from unsorted bin into small/large bin" style="rhombus;whiteSpace=wrap;html=1;" vertex="1" parent="WIyWlLk6GJQsqaUBKTNV-1">
          <mxGeometry x="160" y="1049" width="120" height="120" as="geometry" />
        </mxCell>
        <mxCell id="S1Z8hwwc7efvkq5VSSDY-6" value="" style="rounded=0;html=1;jettySize=auto;orthogonalLoop=1;fontSize=11;endArrow=block;endFill=0;endSize=8;strokeWidth=1;shadow=0;labelBackgroundColor=none;edgeStyle=orthogonalEdgeStyle;entryX=0.5;entryY=0;entryDx=0;entryDy=0;" edge="1" parent="WIyWlLk6GJQsqaUBKTNV-1" target="S1Z8hwwc7efvkq5VSSDY-8">
          <mxGeometry x="-0.1111" y="20" relative="1" as="geometry">
            <mxPoint as="offset" />
            <mxPoint x="219.32999999999979" y="1169" as="sourcePoint" />
            <mxPoint x="219.83" y="1209" as="targetPoint" />
            <Array as="points">
              <mxPoint x="219" y="1189" />
              <mxPoint x="220" y="1189" />
            </Array>
          </mxGeometry>
        </mxCell>
        <mxCell id="S1Z8hwwc7efvkq5VSSDY-8" value="Search large bin" style="rhombus;whiteSpace=wrap;html=1;" vertex="1" parent="WIyWlLk6GJQsqaUBKTNV-1">
          <mxGeometry x="160" y="1210" width="120" height="80" as="geometry" />
        </mxCell>
        <mxCell id="S1Z8hwwc7efvkq5VSSDY-9" value="" style="endArrow=none;html=1;rounded=0;" edge="1" parent="WIyWlLk6GJQsqaUBKTNV-1">
          <mxGeometry width="50" height="50" relative="1" as="geometry">
            <mxPoint x="280" y="1250" as="sourcePoint" />
            <mxPoint x="350" y="1250" as="targetPoint" />
          </mxGeometry>
        </mxCell>
        <mxCell id="S1Z8hwwc7efvkq5VSSDY-10" value="" style="endArrow=none;html=1;rounded=0;entryX=1;entryY=1;entryDx=0;entryDy=0;" edge="1" parent="WIyWlLk6GJQsqaUBKTNV-1" target="S1Z8hwwc7efvkq5VSSDY-0">
          <mxGeometry width="50" height="50" relative="1" as="geometry">
            <mxPoint x="350" y="1250" as="sourcePoint" />
            <mxPoint x="300" y="1060" as="targetPoint" />
          </mxGeometry>
        </mxCell>
        <mxCell id="S1Z8hwwc7efvkq5VSSDY-11" value="Yes" style="text;html=1;strokeColor=none;fillColor=none;align=center;verticalAlign=middle;whiteSpace=wrap;rounded=0;" vertex="1" parent="WIyWlLk6GJQsqaUBKTNV-1">
          <mxGeometry x="290" y="1220" width="60" height="30" as="geometry" />
        </mxCell>
        <mxCell id="S1Z8hwwc7efvkq5VSSDY-12" value="" style="rounded=0;html=1;jettySize=auto;orthogonalLoop=1;fontSize=11;endArrow=block;endFill=0;endSize=8;strokeWidth=1;shadow=0;labelBackgroundColor=none;edgeStyle=orthogonalEdgeStyle;" edge="1" parent="WIyWlLk6GJQsqaUBKTNV-1">
          <mxGeometry x="-0.1111" y="20" relative="1" as="geometry">
            <mxPoint as="offset" />
            <mxPoint x="220.0499999999997" y="1290" as="sourcePoint" />
            <mxPoint x="220.54999999999993" y="1330" as="targetPoint" />
            <Array as="points">
              <mxPoint x="219.72" y="1310" />
            </Array>
          </mxGeometry>
        </mxCell>
        <mxCell id="S1Z8hwwc7efvkq5VSSDY-13" value="No" style="text;html=1;strokeColor=none;fillColor=none;align=center;verticalAlign=middle;whiteSpace=wrap;rounded=0;" vertex="1" parent="WIyWlLk6GJQsqaUBKTNV-1">
          <mxGeometry x="220" y="1290" width="60" height="30" as="geometry" />
        </mxCell>
        <mxCell id="S1Z8hwwc7efvkq5VSSDY-14" value="Get chunk from heap" style="rhombus;whiteSpace=wrap;html=1;" vertex="1" parent="WIyWlLk6GJQsqaUBKTNV-1">
          <mxGeometry x="155" y="1330" width="130" height="90" as="geometry" />
        </mxCell>
        <mxCell id="S1Z8hwwc7efvkq5VSSDY-15" value="" style="endArrow=none;html=1;rounded=0;exitX=1;exitY=0.5;exitDx=0;exitDy=0;" edge="1" parent="WIyWlLk6GJQsqaUBKTNV-1" source="S1Z8hwwc7efvkq5VSSDY-14">
          <mxGeometry width="50" height="50" relative="1" as="geometry">
            <mxPoint x="200" y="1420" as="sourcePoint" />
            <mxPoint x="350" y="1375" as="targetPoint" />
          </mxGeometry>
        </mxCell>
        <mxCell id="S1Z8hwwc7efvkq5VSSDY-16" value="" style="endArrow=none;html=1;rounded=0;entryX=1;entryY=1;entryDx=0;entryDy=0;" edge="1" parent="WIyWlLk6GJQsqaUBKTNV-1" target="S1Z8hwwc7efvkq5VSSDY-11">
          <mxGeometry width="50" height="50" relative="1" as="geometry">
            <mxPoint x="350" y="1500" as="sourcePoint" />
            <mxPoint x="250" y="1370" as="targetPoint" />
          </mxGeometry>
        </mxCell>
        <mxCell id="S1Z8hwwc7efvkq5VSSDY-17" value="Yes" style="text;html=1;strokeColor=none;fillColor=none;align=center;verticalAlign=middle;whiteSpace=wrap;rounded=0;" vertex="1" parent="WIyWlLk6GJQsqaUBKTNV-1">
          <mxGeometry x="290" y="1340" width="60" height="30" as="geometry" />
        </mxCell>
        <mxCell id="S1Z8hwwc7efvkq5VSSDY-19" value="" style="rounded=0;html=1;jettySize=auto;orthogonalLoop=1;fontSize=11;endArrow=block;endFill=0;endSize=8;strokeWidth=1;shadow=0;labelBackgroundColor=none;edgeStyle=orthogonalEdgeStyle;" edge="1" parent="WIyWlLk6GJQsqaUBKTNV-1">
          <mxGeometry x="-0.1111" y="20" relative="1" as="geometry">
            <mxPoint as="offset" />
            <mxPoint x="220.04999999999973" y="1420" as="sourcePoint" />
            <mxPoint x="220.54999999999995" y="1460" as="targetPoint" />
            <Array as="points">
              <mxPoint x="219.72" y="1440" />
            </Array>
          </mxGeometry>
        </mxCell>
        <mxCell id="S1Z8hwwc7efvkq5VSSDY-20" value="No" style="text;html=1;strokeColor=none;fillColor=none;align=center;verticalAlign=middle;whiteSpace=wrap;rounded=0;" vertex="1" parent="WIyWlLk6GJQsqaUBKTNV-1">
          <mxGeometry x="220" y="1420" width="60" height="30" as="geometry" />
        </mxCell>
        <mxCell id="S1Z8hwwc7efvkq5VSSDY-21" value="Using sbrk to extend space" style="rhombus;whiteSpace=wrap;html=1;" vertex="1" parent="WIyWlLk6GJQsqaUBKTNV-1">
          <mxGeometry x="127.5" y="1460" width="185" height="80" as="geometry" />
        </mxCell>
        <mxCell id="S1Z8hwwc7efvkq5VSSDY-22" value="" style="endArrow=none;html=1;rounded=0;exitX=1;exitY=0.5;exitDx=0;exitDy=0;" edge="1" parent="WIyWlLk6GJQsqaUBKTNV-1" source="S1Z8hwwc7efvkq5VSSDY-21">
          <mxGeometry width="50" height="50" relative="1" as="geometry">
            <mxPoint x="200" y="1570" as="sourcePoint" />
            <mxPoint x="350" y="1500" as="targetPoint" />
          </mxGeometry>
        </mxCell>
        <mxCell id="S1Z8hwwc7efvkq5VSSDY-23" value="Yes" style="text;html=1;strokeColor=none;fillColor=none;align=center;verticalAlign=middle;whiteSpace=wrap;rounded=0;" vertex="1" parent="WIyWlLk6GJQsqaUBKTNV-1">
          <mxGeometry x="290" y="1470" width="60" height="30" as="geometry" />
        </mxCell>
        <mxCell id="S1Z8hwwc7efvkq5VSSDY-25" value="" style="rounded=0;html=1;jettySize=auto;orthogonalLoop=1;fontSize=11;endArrow=block;endFill=0;endSize=8;strokeWidth=1;shadow=0;labelBackgroundColor=none;edgeStyle=orthogonalEdgeStyle;exitX=0;exitY=0.5;exitDx=0;exitDy=0;entryX=0.5;entryY=1;entryDx=0;entryDy=0;" edge="1" parent="WIyWlLk6GJQsqaUBKTNV-1" source="S1Z8hwwc7efvkq5VSSDY-21" target="LZnhyjSrcPgde9gPbSWK-9">
          <mxGeometry x="-0.1111" y="20" relative="1" as="geometry">
            <mxPoint as="offset" />
            <mxPoint x="50.04999999999973" y="1470" as="sourcePoint" />
            <mxPoint x="40" y="520" as="targetPoint" />
            <Array as="points">
              <mxPoint x="40" y="1500" />
            </Array>
          </mxGeometry>
        </mxCell>
        <mxCell id="S1Z8hwwc7efvkq5VSSDY-26" value="No" style="text;html=1;strokeColor=none;fillColor=none;align=center;verticalAlign=middle;whiteSpace=wrap;rounded=0;" vertex="1" parent="WIyWlLk6GJQsqaUBKTNV-1">
          <mxGeometry x="57.5" y="1470" width="60" height="30" as="geometry" />
        </mxCell>
        <mxCell id="S1Z8hwwc7efvkq5VSSDY-27" value="" style="endArrow=classic;html=1;rounded=0;entryX=0.657;entryY=0.987;entryDx=0;entryDy=0;entryPerimeter=0;fillColor=#d80073;strokeColor=#A50040;" edge="1" parent="WIyWlLk6GJQsqaUBKTNV-1" target="WIyWlLk6GJQsqaUBKTNV-7">
          <mxGeometry width="50" height="50" relative="1" as="geometry">
            <mxPoint x="70" y="440" as="sourcePoint" />
            <mxPoint x="410" y="440" as="targetPoint" />
            <Array as="points">
              <mxPoint x="240" y="440" />
              <mxPoint x="399" y="440" />
            </Array>
          </mxGeometry>
        </mxCell>
        <mxCell id="S1Z8hwwc7efvkq5VSSDY-28" value="" style="endArrow=none;html=1;rounded=0;entryX=0.75;entryY=1;entryDx=0;entryDy=0;fillColor=#d80073;strokeColor=#A50040;" edge="1" parent="WIyWlLk6GJQsqaUBKTNV-1" target="LZnhyjSrcPgde9gPbSWK-9">
          <mxGeometry width="50" height="50" relative="1" as="geometry">
            <mxPoint x="70" y="440" as="sourcePoint" />
            <mxPoint x="240" y="350" as="targetPoint" />
          </mxGeometry>
        </mxCell>
        <mxCell id="S1Z8hwwc7efvkq5VSSDY-29" value="Yes" style="text;html=1;strokeColor=none;fillColor=none;align=center;verticalAlign=middle;whiteSpace=wrap;rounded=0;" vertex="1" parent="WIyWlLk6GJQsqaUBKTNV-1">
          <mxGeometry x="90" y="410" width="60" height="30" as="geometry" />
        </mxCell>
        <mxCell id="S1Z8hwwc7efvkq5VSSDY-30" value="" style="endArrow=classic;html=1;rounded=0;exitX=0.5;exitY=0;exitDx=0;exitDy=0;" edge="1" parent="WIyWlLk6GJQsqaUBKTNV-1" source="LZnhyjSrcPgde9gPbSWK-9">
          <mxGeometry width="50" height="50" relative="1" as="geometry">
            <mxPoint x="60" y="290" as="sourcePoint" />
            <mxPoint x="40" y="240" as="targetPoint" />
          </mxGeometry>
        </mxCell>
        <mxCell id="S1Z8hwwc7efvkq5VSSDY-32" value="No" style="text;html=1;strokeColor=none;fillColor=none;align=center;verticalAlign=middle;whiteSpace=wrap;rounded=0;" vertex="1" parent="WIyWlLk6GJQsqaUBKTNV-1">
          <mxGeometry x="30" y="270" width="60" height="30" as="geometry" />
        </mxCell>
        <mxCell id="S1Z8hwwc7efvkq5VSSDY-33" value="return Null" style="rounded=1;whiteSpace=wrap;html=1;" vertex="1" parent="WIyWlLk6GJQsqaUBKTNV-1">
          <mxGeometry x="-15" y="190" width="110" height="50" as="geometry" />
        </mxCell>
      </root>
    </mxGraphModel>
  </diagram>
</mxfile>
